<?xml version="1.0" encoding="UTF-8"?>
<svg width="1200pt" height="1200pt" version="1.1" viewBox="0 0 1200 1200" xmlns="http://www.w3.org/2000/svg">
 <path d="m283.22 395.1c-37.621 0-68.051 30.516-68.051 68.051 0 37.523 30.434 67.969 68.051 67.969 37.535 0 67.98-30.445 67.98-67.969 0-37.535-30.457-68.051-67.98-68.051zm0 0c-37.621 0-68.051 30.516-68.051 68.051 0 37.523 30.434 67.969 68.051 67.969 37.535 0 67.98-30.445 67.98-67.969 0-37.535-30.457-68.051-67.98-68.051zm823.67 227.96c0-90.457-1.8125-147.7-8.9883-183.27-0.097656-0.53906-0.25391-1.0938-0.3125-1.5703-1.1875-6.9375-2.7617-13.645-4.7383-20.258-9.4688-32.652-27.84-61.43-52.285-83.676-9.5273-8.7461-20.027-16.402-31.234-22.945l-0.058593-0.085937c-0.097657 0-0.17969-0.070313-0.25391-0.16797-36.66-27.984-89.328-51.719-152.82-69.227-72.852-20.039-159.93-31.715-253.52-31.715-93.602 0-180.74 11.676-253.61 31.777-61.895 16.957-113.55 40.055-150.07 67.188-12.445 6.8633-24.047 15.145-34.535 24.695-18.445 16.559-33.422 36.91-43.836 59.762-3.4688 7.5703-6.3828 15.457-8.832 23.508-13.645 37.285-19.477 101.17-19.477 205.97 0 202.6 2.6055 356.28 88.008 352.98 0.9375 0 1.8008 0 2.6758-0.085938 67.598-3 96.613-118.84 102.6-283.03 4.8828 1.6562 10.488 3.1562 16.957 4.3438 0 71.52 57.973 129.48 129.48 129.48 71.531 0 129.48-57.961 129.48-129.48 0-53.387-33.887-102.36-80.82-123.89 0.38281-3 0.64844-6.1562 0.64844-9.3828 0-6.3008-0.875-12.227-2.3633-17.496 39.023-0.3125 80.496-2.7617 123.72-7.5 42.973 6.0703 84.383 9.3711 123.56 10.246-0.92578 3.875-1.4023 8.0508-1.4023 12.312 0 3.707 0.38281 7.3203 1.0938 10.789-48.086 20.891-82.945 70.668-82.945 124.92 0 71.52 57.961 129.48 129.49 129.48 71.438 0 129.39-68.062 129.39-139.59 6.457 0.25391 12.07 0.16797 16.871-0.30078 5.9023 172.14 36.984 302.96 102.2 302.96 101.06 0.011719 85.918-164.16 85.918-366.76zm-783.92-76.871h-81.539l-50.855-63.793 18.133-79.5 73.5-35.398 73.488 35.398 18.156 79.5zm181.05 132.48v39.422h-54.875v58.824h-39.434v-58.824h-62.762v-39.422h62.762v-58.824h39.434v58.824zm99.203-171.85c-13.633 0-24.684-11.039-24.684-24.684 0-13.559 11.051-24.602 24.684-24.602 13.645 0 24.613 11.039 24.613 24.602-0.011719 13.645-10.98 24.684-24.613 24.684zm248.56-163.38c27.828-16.008 43.535-19.727 75.625-17.82 12.938 0.78125 23.746 15.215 24.047 29.879 0.25391 14.676-8.1953 24.445-18.672 23.809-26.207-1.5-38.965 1.5-61.68 14.594-9.0703 5.2812-21.059 0.3125-27.445-12.926-2.1367-4.5-3.168-9.5391-3.168-14.508 0.011718-9.5547 3.875-18.758 11.293-23.027zm-45.191 139.74c22.477 0 40.777 18.215 40.777 40.754 0 22.477-18.301 40.703-40.777 40.703-22.453 0-40.754-18.227-40.754-40.703-0.011719-22.551 18.301-40.754 40.754-40.754zm7.2578 295.7h-76.883l-48.023-60.098 17.125-74.988 69.301-33.434 69.324 33.434 17.102 74.988zm108.77-244.45c-35.734 0-64.754-28.945-64.754-64.754 0-35.734 29.027-64.754 64.754-64.754 35.711 0 64.727 29.016 64.727 64.754-0.011718 35.809-29.027 64.754-64.727 64.754zm142.8-59.773c-1.0312 12.852-15.695 23.41-30.371 23.41-14.664 0-24.359-8.6758-23.484-19.078 1.9688-26.102-0.79297-38.941-13.488-61.895-5.1367-9.2383 0.070313-21.059 13.488-27.215 4.332-1.9688 9.1445-2.9141 13.859-2.9141 9.7695 0 19.246 4.1055 23.426 11.676 15.621 28.148 18.992 43.914 16.57 76.016zm-290.66 174.74c-29.258 0-52.906 23.734-52.906 52.906 0 29.258 23.652 52.906 52.906 52.906 29.172 0 52.906-23.652 52.906-52.906 0-29.168-23.75-52.906-52.906-52.906zm-491.54-254.3c-37.621 0-68.051 30.516-68.051 68.051 0 37.523 30.434 67.969 68.051 67.969 37.535 0 67.98-30.445 67.98-67.969 0-37.535-30.457-68.051-67.98-68.051zm30.121-158.04c-46.141 15.457-85.078 34.621-114.35 56.305-12.445 6.8516-24.047 15.145-34.535 24.684 6.1562-45.574 65.52-81.301 137.91-81.301 3.7344 0 7.3438 0.0625 10.969 0.3125zm727.39 81.625c-9.5273-8.832-20.113-16.559-31.391-23.113l-0.058594-0.070312c-0.097656 0-0.17969-0.085938-0.25391-0.16797-29.566-22.547-69.371-42.348-116.94-58.355 3.4805-0.16797 7.1172-0.23828 10.645-0.23828 72.711 0.007813 132.31 36.047 138 81.945zm-213.07 383.63c0 29.258-23.746 52.906-52.906 52.906-29.258 0-52.906-23.652-52.906-52.906 0-29.184 23.652-52.906 52.906-52.906 29.156-0.003906 52.906 23.734 52.906 52.906zm-476.46-239.16c0 37.523-30.445 67.969-67.98 67.969-37.621 0-68.051-30.445-68.051-67.969 0-37.535 30.434-68.051 68.051-68.051 37.523 0 67.98 30.516 67.98 68.051zm0 0c0 37.523-30.445 67.969-67.98 67.969-37.621 0-68.051-30.445-68.051-67.969 0-37.535 30.434-68.051 68.051-68.051 37.523 0 67.98 30.516 67.98 68.051zm476.46 239.16c0 29.258-23.746 52.906-52.906 52.906-29.258 0-52.906-23.652-52.906-52.906 0-29.184 23.652-52.906 52.906-52.906 29.156-0.003906 52.906 23.734 52.906 52.906z"/>
</svg>
