<?xml version="1.0" encoding="UTF-8"?>
<svg width="1200pt" height="1200pt" version="1.1" viewBox="0 0 1200 1200" xmlns="http://www.w3.org/2000/svg">
 <path d="m735.31 666c0.070312 0.55078 0 1.1055-0.070312 1.668-0.20313-0.20312-0.40625-0.27734-0.55078-0.42188 0.19922-0.40625 0.40625-0.8125 0.62109-1.2461zm354.92-55.633c0 141.18-42.805 255.57-95.676 255.57-23.723 0-48.215-34.199-67.922-84.707-13.465-34.477-24.695-76.586-31.992-120.56-2.6289-15.758-4.7773-31.715-6.2383-47.664-14.773-6.5273-31.285-10.199-48.707-10.199-46.402 0-86.293 25.871-104.4 63.121v0.070312c-0.21484 0.42188-0.42188 0.82812-0.625 1.2461 0.14453 0.14453 0.34766 0.21484 0.55078 0.42188-1.043 25.801-2.832 50.914-5.1367 75.203v0.085937c-18.312 189.25-71.461 326.47-129.52 326.47-57.852 0-113.07-136.25-132.43-324.53v-0.070313c-1.7266-16.992-3.1914-34.477-4.2969-52.234-0.63672-9.707-1.1758-19.43-1.6094-29.34-18.66-35.797-57.719-60.422-102.95-60.422-16.57 0-32.258 3.2539-46.488 9.2266-1.4531 19.766-3.8047 39.191-6.9961 57.996-7.0078 42.527-18.109 81.59-31.355 113.55-20.676 49.957-46.691 82.355-71.039 82.355-51.758 0-93.66-122.38-93.66-273.32 0-68.125 8.5312-130.43 22.68-178.29-0.070312-0.75781-0.070312-1.4648-0.070312-2.2188 0-2.0156 0-4.0312 0.14453-6.0469 0-0.058594 0-0.12109 0.058594-0.33594 1.7383-55.152 27.336-104.34 66.742-137.5v-0.070313c32.746-27.602 75-44.184 121.2-44.184 2.9141 0 5.832 0.058594 8.7344 0.27734 0-0.13281 0.070313-0.21484 0.070313-0.27734h54.863c11.113 0 20.688-6.5156 25.043-15.887v-24.348s0.14453-2.3633 2.0742-6.1797v-0.070312c7.5586-14.004 40.945-46.895 191-46.895 142.91 0 177.46 29.832 185.79 44.809v0.070312c2.5664 4.5 2.6992 7.6328 2.6992 8.1836v26.496c4.7891 8.2695 13.738 13.812 23.93 13.812h65.977c44.82 0 86.027 15.684 118.36 41.902 42.59 34.477 69.781 87.133 69.781 146.24 0 1.4648 0 2.6992 0.070313 3.8047v0.42188c0.058593 6.3008 0.34766 7.7656-0.89844 15.961 14.82 44.906 22.246 113.54 22.246 178.04zm-726.35-204.37c0-3.8047-3.1211-6.9375-6.9375-6.9375h-45.996v-45.926c0-3.8867-3.1211-6.9492-6.9375-6.9492h-37.32c-3.8047 0-6.9375 3.0586-6.9375 6.9492v45.926h-45.938c-3.8047 0-6.9375 3.1211-6.9375 6.9375v37.32c0 3.8164 3.1211 6.9375 6.9375 6.9375h45.938v45.996c0 3.8164 3.1211 6.9492 6.9375 6.9492h37.32c3.8164 0 6.9375-3.1328 6.9375-6.9492v-45.996h45.996c3.8164 0 6.9375-3.1211 6.9375-6.9375zm195.97 49.871c0 22.766 18.383 41.207 41.137 41.207s41.219-18.445 41.219-41.207c0-22.754-18.457-41.195-41.219-41.195-22.738 0-41.137 18.457-41.137 41.195zm96.215 202.93c0-31.367-25.453-56.82-56.809-56.82s-56.746 25.453-56.746 56.82c0 31.355 25.391 56.809 56.746 56.809 31.371 0 56.809-25.453 56.809-56.809zm250.53-325.57c0 17.762 14.438 32.184 32.184 32.184 17.832 0 32.184-14.426 32.184-32.184 0-17.762-14.352-32.184-32.184-32.184-17.762-0.011719-32.184 14.426-32.184 32.184zm-57.723 54.254c0 17.762 14.438 32.195 32.195 32.195 17.832 0 32.195-14.438 32.195-32.195 0-17.762-14.363-32.195-32.195-32.195-17.77 0-32.195 14.422-32.195 32.195zm-57.922 105.3c24.145 0 43.777-19.645 43.777-43.848 0-24.145-19.633-43.777-43.777-43.777-24.215 0-43.777 19.633-43.777 43.777 0 24.215 19.559 43.848 43.777 43.848zm115.77 28.176c0-24.215-19.633-43.836-43.848-43.836-24.145 0-43.766 19.633-43.766 43.836 0 24.145 19.633 43.777 43.766 43.777 24.219-0.003906 43.848-19.645 43.848-43.777zm64.238-80.137c0-17.762-14.352-32.195-32.184-32.195-17.746 0-32.184 14.438-32.184 32.195 0 17.762 14.438 32.195 32.184 32.195 17.832 0 32.184-14.438 32.184-32.195zm56.266-53.34c0-17.762-14.438-32.195-32.184-32.195-17.773 0-32.195 14.426-32.195 32.195 0 17.762 14.426 32.195 32.195 32.195 17.75-0.011719 32.184-14.438 32.184-32.195zm-292.55 279.77c0.14453 0.14453 0.34766 0.21484 0.55078 0.42188 0.070313-0.55078 0.14453-1.1172 0.070313-1.668-0.21094 0.43359-0.41797 0.83984-0.62109 1.2461zm0 0c0.14453 0.14453 0.34766 0.21484 0.55078 0.42188 0.070313-0.55078 0.14453-1.1172 0.070313-1.668-0.21094 0.43359-0.41797 0.83984-0.62109 1.2461zm-87.082-8.6484c0-26.773-21.77-48.539-48.527-48.539-26.746 0-48.539 21.77-48.539 48.539 0 26.762 21.781 48.527 48.539 48.527s48.527-21.77 48.527-48.527zm-4.9922 0c0 24-19.523 43.547-43.547 43.547-24.012 0-43.547-19.535-43.547-43.547 0-24.012 19.535-43.547 43.547-43.547 24.023-0.003906 43.547 19.535 43.547 43.547zm-8.1484 0c0-19.512-15.875-35.398-35.398-35.398-19.512 0-35.387 15.887-35.387 35.398 0 19.512 15.875 35.398 35.387 35.398 19.523 0 35.398-15.887 35.398-35.398zm-4.9805 0c0 16.766-13.645 30.395-30.406 30.395-16.766 0-30.406-13.633-30.406-30.395 0-16.766 13.633-30.406 30.406-30.406 16.75 0.007813 30.406 13.641 30.406 30.406zm-8.4961 0c0-12.098-9.8281-21.938-21.926-21.938s-21.926 9.8281-21.926 21.938c0 12.086 9.8398 21.91 21.926 21.91s21.926-9.8281 21.926-21.91zm-4.9805 0c0 9.3359-7.6094 16.934-16.945 16.934s-16.934-7.5977-16.934-16.934c0-9.3359 7.5859-16.945 16.934-16.945s16.945 7.6094 16.945 16.945zm211.78-462.73c-12.695 0-25.043 0.55078-36.984 1.5234v4.6445c4.7891 8.2695 13.738 13.812 23.93 13.812h65.977c44.879 0 86.16 15.758 118.5 42.035-4.8516-34.547-79.707-62.016-171.42-62.016zm-457.86 0c-94.414 0-171.01 29.148-171.7 65.148 32.891-28.164 75.613-45.156 122.3-45.156 2.9141 0 5.832 0.058593 8.7344 0.26562 0-0.13281 0.070313-0.20312 0.070313-0.26562h54.863c11.113 0 20.688-6.5273 25.043-15.898v-2.3516c-12.621-1.1172-25.797-1.7422-39.32-1.7422zm-92.316 171.16-7.9219 13.727h31.656l-7.9219-13.727-7.9219-13.715zm15.828 117.36 7.9219-13.715h-31.656l7.9219 13.715 7.9219 13.727zm50.77-66.609-13.727-7.9062v31.668l13.727-7.9062 13.715-7.9219zm-117.37 15.852 13.738 7.9062v-31.668l-13.738 7.9062-13.703 7.9336z"/>
</svg>
