<?xml version="1.0" encoding="UTF-8"?>
<svg width="1200pt" height="1200pt" version="1.1" viewBox="0 0 1200 1200" xmlns="http://www.w3.org/2000/svg">
 <path d="m1092.8 373.25h-985.5c-11.641 0-21.098 9.457-21.098 21.098v411.31c0 11.629 9.457 21.098 21.098 21.098h985.5c11.652 0 21.098-9.4688 21.098-21.098l-0.003907-411.31c-0.011718-11.641-9.457-21.098-21.094-21.098zm7.0312 432.41c0 3.8633-3.1797 7.0312-7.043 7.0312h-985.49c-3.8516 0-7.0195-3.168-7.0195-7.0312l-0.003906-411.31c0-3.875 3.168-7.0312 7.0195-7.0312h985.5c3.8633 0 7.043 3.168 7.043 7.0312l0.003906 411.31zm-29.281-361.82h-937.75c-7.7891 0-14.09 6.3008-14.09 14.062v320.8c0 7.7656 6.2891 14.062 14.09 14.062h937.75c7.7539 0 14.051-6.2891 14.051-14.062l-0.003906-320.8c0-7.7617-6.2969-14.062-14.051-14.062zm-74.711 194.24v100.19c0 3.8633-3.168 7.0312-7.0312 7.0312h-99.312c-3.8633 0-7.0312-3.168-7.0312-7.0312v-100.19c0-3.8633 3.168-7.0312 7.0312-7.0312h99.312c3.875-0.011719 7.0312 3.168 7.0312 7.0312zm-131.84 0v100.19c0 3.8633-3.168 7.0312-7.0195 7.0312h-99.312c-3.8633 0-7.0312-3.168-7.0312-7.0312v-100.19c0-3.8633 3.168-7.0312 7.0312-7.0312h99.312c3.8516-0.011719 7.0195 3.168 7.0195 7.0312zm-156.43 18.457v64.152c0 9.6953-7.8711 17.578-17.578 17.578l-246.1 0.003906c-9.6953 0-17.555-7.8828-17.555-17.578v-64.152c0-9.707 7.8594-17.578 17.555-17.578h246.1c9.707-0.003906 17.578 7.8672 17.578 17.574zm-520.85 26.641c-7.6328 0-13.777-6.2891-13.777-14.062v-59.762c0-7.7656 6.1562-14.051 13.777-14.051h44.508v-44.473c0-7.6445 6.2773-13.824 14.051-13.824h59.762c7.7773 0 14.062 6.1797 14.062 13.824v44.473h44.508c7.6328 0 13.777 6.2891 13.777 14.051v59.762c0 7.7656-6.1562 14.062-13.777 14.062h-44.508v44.508c0 7.6328-6.2773 13.824-14.062 13.824h-59.762c-7.7656 0-14.051-6.1914-14.051-13.824v-44.508zm354.14 9.3828c0 7.7656-6.3008 14.062-14.062 14.062h-54.504c-7.7539 0-14.039-6.2891-14.039-14.062v-4.6797c0-7.7656 6.2891-14.062 14.039-14.062h54.504c7.7539 0 14.062 6.2891 14.062 14.062zm131.27 0c0 7.7656-6.2773 14.062-14.062 14.062h-54.492c-7.7539 0-14.062-6.2891-14.062-14.062v-4.6797c0-7.7656 6.3008-14.062 14.062-14.062h54.492c7.7773 0 14.062 6.2891 14.062 14.062zm179.28-2.3516c0 24.289-19.691 43.957-43.934 43.957-24.301 0-43.945-19.656-43.945-43.957 0-24.254 19.645-43.945 43.945-43.945 24.254 0.003907 43.934 19.695 43.934 43.945zm131.68 0c0 24.289-19.656 43.957-43.957 43.957-24.254 0-43.934-19.656-43.934-43.957 0-24.254 19.691-43.945 43.934-43.945 24.301 0.003907 43.957 19.695 43.957 43.945zm-442.22-2.3164v4.6797c0 7.7656-6.3008 14.062-14.062 14.062h-54.504c-7.7539 0-14.039-6.2891-14.039-14.062v-4.6797c0-7.7656 6.2891-14.062 14.039-14.062h54.504c7.7617 0 14.062 6.2891 14.062 14.062zm131.27 0v4.6797c0 7.7656-6.2773 14.062-14.062 14.062h-54.492c-7.7539 0-14.062-6.2891-14.062-14.062v-4.6797c0-7.7656 6.3008-14.062 14.062-14.062h54.492c7.7734 0 14.062 6.2891 14.062 14.062zm-308.34-81.73h-53.746v-54.203c0-1.9453-1.5859-3.5156-3.5156-3.5156h-62.113c-1.9453 0-3.5156 1.5859-3.5156 3.5156v54.203h-53.762c-1.9219 0-3.5039 1.5352-3.5039 3.5156v62.074c0 1.9805 1.5859 3.5156 3.5039 3.5156h53.762v53.328c0 1.9336 1.5703 3.5156 3.5156 3.5156h62.113c1.9336 0 3.5156-1.5859 3.5156-3.5156v-53.328h53.746c1.9453 0 3.5273-1.5469 3.5273-3.5156v-62.074c-0.007812-1.9805-1.582-3.5156-3.5273-3.5156zm-132.56 50.16h-15.168v5.0625l-20.219-19.789 20.219-19.766v5.0625h15.168zm39.301-91.715 19.777 20.207h-5.0625l-0.003906 15.191h-29.41v-15.18h-5.1016zm20.914 76.113c0 10.441-8.4844 18.875-18.91 18.875-10.453 0-18.926-8.4375-18.926-18.875 0-10.453 8.4727-18.887 18.926-18.887 10.426 0 18.91 8.4375 18.91 18.887zm-18.492 75.781-19.754-20.207h5.0625v-15.156h29.41v15.156h5.0625zm55.047-57.758v-5.0625h-15.145v-29.461h15.145v-5.0625l20.219 19.801z"/>
</svg>
