<?xml version="1.0" encoding="UTF-8"?>
<svg width="1200pt" height="1200pt" version="1.1" viewBox="0 0 1200 1200" xmlns="http://www.w3.org/2000/svg">
 <path d="m1115.1 572.34c-16.355-78.684-74.902-141.88-150.94-164.86-20.09-6.0859-41.41-9.3477-63.48-9.3477h-601.46c-21.266 0-41.891 3.0586-61.379 8.7344-81.852 23.844-143.89 94.211-155.61 180.59-1.332 9.6953-1.9922 19.598-1.9922 29.652 0 120.93 98.027 218.94 218.98 218.94 57.023 0 109-21.816 147.91-57.562h305.62c38.914 35.746 90.887 57.562 147.93 57.562 120.96 0 218.98-98.016 218.98-218.94 0.007812-15.336-1.5742-30.324-4.5508-44.773zm-726.34 64.391c0 6.875-5.5547 12.434-12.434 12.434h-47.125v47.125c0 6.875-5.5547 12.422-12.422 12.422h-40.871c-6.875 0-12.422-5.543-12.422-12.422v-47.125h-47.102c-6.8633 0-12.406-5.5547-12.406-12.434v-40.871c0-6.875 5.543-12.422 12.406-12.422h47.102v-47.09c0-6.875 5.543-12.422 12.422-12.422h40.871c6.8633 0 12.422 5.543 12.422 12.422v47.09h47.125c6.875 0 12.434 5.543 12.434 12.422zm146.22 10.551-21.852 16.777-22.754 17.438c-8.4492 6.5039-20.039 5.5781-25.871-2.0273-2.2578-2.9023-3.3125-6.3711-3.3125-9.8867 0-5.7227 2.7969-11.652 8.0742-15.66l44.594-34.211c1.3672-1.0312 2.8203-1.8945 4.3086-2.5547 7.7539-3.4453 16.691-1.7383 21.574 4.6328 5.8242 7.6094 3.7227 19.035-4.7617 25.492zm115.62 0-44.605 34.211c-8.4961 6.5039-20.102 5.5781-25.906-2.0273-2.2578-2.9023-3.2891-6.3359-3.2891-9.8516 0-5.7617 2.8203-11.688 8.0391-15.695l44.605-34.211c8.4844-6.457 20.09-5.543 25.922 2.0742 5.8281 7.6172 3.6719 19.043-4.7656 25.5zm111.72 2.207c-7.6797-9.9844-11.426-21.66-11.426-32.891 0-13.992 5.832-27.324 17.09-35.988l107.22-82.152c7.5-5.7617 16.402-8.6523 25.477-8.8203 15.527-0.42188 31.633 7.0312 42.469 21.203 17.207 22.441 14.676 53.258-5.6992 68.867l-36.77 28.199-70.402 53.965c-20.34 15.613-50.773 10.059-67.957-12.383zm273.14 8.5195-107.17 82.199c-8.0898 6.2148-17.762 9.0703-27.625 8.7734-14.855-0.28906-30.035-7.6562-40.367-21.156-7.6797-9.9727-11.398-21.66-11.398-32.879 0-14.004 5.7969-27.336 17.102-36l34.68-26.578 72.504-55.609c20.328-15.574 50.773-10.02 67.992 12.383 17.18 22.453 14.613 53.305-5.7148 68.867zm-653.25-58.715v33.996c0 5.7109-5.1953 10.355-11.566 10.355h-46.957v47.711c0 6.4219-4.6445 11.629-10.332 11.629h-33.996c-5.7344 0-10.355-5.2188-10.355-11.629v-47.711h-46.957c-6.3359 0-11.531-4.6445-11.531-10.355v-33.996c0-5.7109 5.1953-10.355 11.531-10.355h46.957v-47.699c0-6.4336 4.6328-11.652 10.355-11.652h33.996c5.6992 0 10.332 5.2188 10.332 11.652v47.699h46.957c6.3789 0.011719 11.566 4.6406 11.566 10.355zm560.42-56.484c0 22.164-17.977 40.094-40.152 40.094-0.61328 0-1.1992 0-1.8008-0.046875-21.289-0.96094-38.258-18.504-38.258-40.043 0-21.527 16.969-39.133 38.258-40.078 0.61328-0.035156 1.1992-0.035156 1.8008-0.035156 22.176-0.007813 40.152 17.957 40.152 40.109zm-99.023 75.574c0 22.152-17.941 40.129-40.078 40.129-22.164 0-40.129-17.977-40.129-40.129 0-22.152 17.965-40.129 40.129-40.129 22.137 0.003906 40.078 17.977 40.078 40.129zm99.023 79.297c0 22.152-17.977 40.129-40.152 40.129-0.61328 0-1.1992 0-1.8008-0.035156-21.289-0.96094-38.258-18.551-38.258-40.094 0-21.527 16.969-39.086 38.258-40.043 0.61328-0.035157 1.1992-0.035157 1.8008-0.035157 22.176 0 40.152 17.926 40.152 40.078zm99.371-77.219c0 22.164-17.977 40.129-40.129 40.129-22.164 0-40.078-17.977-40.078-40.129 0-22.152 17.914-40.129 40.078-40.129 22.152-0.011719 40.129 17.965 40.129 40.129zm-396.34 25.379-39.84 30.516c-7.5703 5.7969-17.258 5.7969-21.742 0-1.4883-1.9062-2.1953-4.2617-2.1953-6.707 0-4.9336 2.8086-10.391 7.8711-14.242l39.816-30.562c7.5859-5.7969 17.27-5.7969 21.758 0 4.4258 5.8047 1.9062 15.188-5.668 20.996zm-115.62 0-15.695 12.012-24.145 18.504c-7.5352 5.7969-17.27 5.7969-21.707 0-1.4883-1.9062-2.207-4.2617-2.207-6.707 0-4.9336 2.8203-10.391 7.8242-14.242l39.852-30.562c1.2969-0.99609 2.6875-1.8242 4.0938-2.4844 6.707-3.1445 13.992-2.3164 17.641 2.4844 4.4453 5.8047 1.9258 15.188-5.6562 20.996zm436.71-247.02c-18.805-5.1719-38.566-7.9453-58.98-7.9453h-124.56c-0.71875-2.5312-0.99609-5.3047-0.78125-8.125 0.75781-10.727 8.3516-18.758 17.305-18.758 0.53906 0 1.0781 0.046874 1.6094 0.085937l149.41 15.949c8.6172 0.91406 15.289 9.0234 15.996 18.793zm-546.88-16.066c0.22656 2.8203-0.085937 5.5938-0.86328 8.125l-126.91-0.003906c-19.512 0-38.438 2.5195-56.449 7.2852 0.98438-9.4805 7.5-17.23 15.898-18.133l149.36-15.984c9.6523-1.043 18.148 7.332 18.965 18.711z"/>
</svg>
