<?xml version="1.0" encoding="UTF-8"?>
<svg width="1200pt" height="1200pt" version="1.1" viewBox="0 0 1200 1200" xmlns="http://www.w3.org/2000/svg">
 <g>
  <path d="m552 494.4v66c0 9.6016 7.1992 19.199 16.801 19.199h16.801v-103.2h-16.801c-9.6016 1.2031-16.801 8.4023-16.801 18z"/>
  <path d="m1113.6 636c-12-60-25.199-138-42-186-16.801-48-30-70.801-39.602-86.398-3.6016-6-7.1992-10.801-9.6016-14.398-8.3984-82.801-75.602-144-162-144h-96v34.797c-15.602-1.1992-26.398-13.199-26.398-27.602v-6h-278.4v6c0 15.602-10.801 27.602-26.398 27.602v-34.801h-85.203c-87.602 0-165.6 62.398-172.8 147.6-2.3984 2.3984-4.8008 6-6 9.6016-9.6016 16.801-24 39.602-39.602 86.398-16.797 49.199-29.996 127.2-43.199 187.2-13.199 60-25.199 154.8-25.199 180v33.602c0 69.602 45.602 124.8 100.8 124.8 25.199 0 49.199-12 66-31.199 31.199 31.199 74.398 50.398 118.8 50.398h512.4c44.398 0 84-19.199 112.8-49.199 18 18 40.801 30 64.801 30 56.398 0 100.8-56.398 100.8-124.8v-33.602c1.1953-25.199-12.004-120-24.004-180zm-696 343.2h-69.602-7.1992-3.6016-4.8008-3.6016-3.6016c-1.1992 0-3.6016 0-4.8008-1.1992h-2.3984c-1.1992 0-3.6016-1.1992-4.8008-1.1992h-2.3984c-2.3984 0-3.6016-1.1992-6-1.1992h-1.1992c-2.3984-1.1992-3.6016-1.1992-6-2.3984h-1.1992c-2.3984-1.1992-3.6016-1.1992-6-2.3984h-1.1992c-2.3984-1.1992-4.8008-2.3984-6-2.3984-2.3984-1.1992-4.8008-2.3984-6-3.6016-13.199-7.1992-25.199-16.801-36-27.602-28.801-28.801-48-68.398-48-110.4v-459.61c0-15.602 2.3984-30 7.1992-44.398 1.1992-2.3984 1.1992-4.8008 2.3984-6 1.1992-2.3984 1.1992-3.6016 2.3984-6 1.1992-2.3984 2.3984-3.6016 2.3984-6v-1.1992c1.1992-2.3984 2.3984-3.6016 2.3984-4.8008 0 0 0-1.1992 1.1992-1.1992 1.1992-1.1992 2.3984-3.6016 3.6016-4.8008l1.1992-1.1992c1.1992-1.1992 2.3984-2.3984 3.6016-4.8008 0-1.1992 1.1992-1.1992 1.1992-2.3984 1.1992-1.1992 2.3984-2.3984 2.3984-3.6016 1.1992-1.1992 1.1992-1.1992 2.3984-2.3984 1.1992-1.1992 1.1992-2.3984 2.3984-3.6016 1.1992-1.1992 2.3984-2.3984 2.3984-3.6016 1.1992-1.1992 1.1992-1.1992 2.3984-2.3984 1.1992-1.1992 3.6016-3.6016 6-4.8008 30-27.602 69.602-42 110.4-42h69.602l0.015625 757.2zm178.8-388.8h-26.398c-15.602 0-27.602-13.199-27.602-30v-66c0-15.602 12-27.602 27.602-27.602h26.398zm69.602-28.797c0 15.602-13.199 30-28.801 30h-27.602l0.003906-124.8h27.602c15.602 0 28.801 12 28.801 27.602zm340.8 169.2v91.199c0 40.801-15.602 81.602-43.199 110.4-10.801 12-22.801 21.602-36 28.801-2.3984 1.1992-3.6016 2.3984-6 3.6016-2.3984 1.1992-3.6016 2.3984-6 2.3984h-1.1992c-2.3984 1.1992-3.6016 1.1992-6 2.3984h-1.1992c-2.3984 1.1992-3.6016 1.1992-6 2.3984h-1.1992c-1.1992 0-3.6016 1.1992-4.8008 1.1992h-2.3984c-1.1992 0-3.6016 1.1992-4.8008 1.1992h-2.3984c-1.1992 0-3.6016 0-4.8008 1.1992h-3.6016-3.6016-4.8008-2.3984-7.1992l-79.203 0.007812v-754.8h80.398c40.801 0 78 14.398 105.6 42 27.602 26.398 42 63.602 42 104.4v363.6z"/>
  <path d="m283.2 624c0 17.23-13.969 31.199-31.199 31.199s-31.199-13.969-31.199-31.199 13.969-31.199 31.199-31.199 31.199 13.969 31.199 31.199"/>
  <path d="m406.8 624c0 17.23-13.969 31.199-31.199 31.199-17.234 0-31.203-13.969-31.203-31.199s13.969-31.199 31.203-31.199c17.23 0 31.199 13.969 31.199 31.199"/>
  <path d="m345.6 562.8c0 17.23-13.969 31.199-31.203 31.199-17.23 0-31.199-13.969-31.199-31.199s13.969-31.199 31.199-31.199c17.234 0 31.203 13.969 31.203 31.199"/>
  <path d="m380.4 404.4c0 36.453-29.547 66-66 66-36.449 0-66-29.547-66-66 0-36.449 29.551-66 66-66 36.453 0 66 29.551 66 66"/>
  <path d="m345.6 686.4c0 17.234-13.969 31.203-31.203 31.203-17.23 0-31.199-13.969-31.199-31.203 0-17.23 13.969-31.199 31.199-31.199 17.234 0 31.203 13.969 31.203 31.199"/>
  <path d="m333.6 747.6h48v48h-48z"/>
  <path d="m981.6 399.6c0 17.23-13.969 31.199-31.203 31.199-17.23 0-31.199-13.969-31.199-31.199 0-17.234 13.969-31.203 31.199-31.203 17.234 0 31.203 13.969 31.203 31.203"/>
  <path d="m858 399.6c0 17.23-13.969 31.199-31.199 31.199s-31.199-13.969-31.199-31.199c0-17.234 13.969-31.203 31.199-31.203s31.199 13.969 31.199 31.203"/>
  <path d="m920.4 337.2c0 17.23-13.969 31.199-31.199 31.199s-31.199-13.969-31.199-31.199 13.969-31.199 31.199-31.199 31.199 13.969 31.199 31.199"/>
  <path d="m955.2 626.4c0 36.453-29.547 66-66 66-36.449 0-66-29.547-66-66 0-36.449 29.551-66 66-66 36.453 0 66 29.551 66 66"/>
  <path d="m920.4 460.8c0 17.23-13.969 31.199-31.199 31.199s-31.199-13.969-31.199-31.199 13.969-31.199 31.199-31.199 31.199 13.969 31.199 31.199"/>
  <path d="m879.6 770.4c0 17.895-14.508 32.402-32.402 32.402s-32.398-14.508-32.398-32.402c0-17.891 14.504-32.398 32.398-32.398s32.402 14.508 32.402 32.398"/>
 </g>
</svg>
