<?xml version="1.0" encoding="UTF-8"?>
<svg width="1200pt" height="1200pt" version="1.1" viewBox="0 0 1200 1200" xmlns="http://www.w3.org/2000/svg">
 <path d="m706.82 81.816h-213.65c-13.262 0-23.977 10.703-23.977 23.965v988.43c0 13.262 10.715 23.965 23.977 23.965h213.66c13.262 0 23.977-10.703 23.977-23.965v-988.43c-0.011719-13.262-10.715-23.965-23.988-23.965zm-123.79 102.48h43.922v44.641h44.652v43.934h-44.652v44.566h-43.922v-44.566h-44.578v-43.934h44.578zm-67.5-70.129c4.3086-4.3906 10.309-7.0195 16.945-7.0195 6.6367 0 12.613 2.6406 16.922 7.0195 4.3086 4.3203 7.0312 10.309 7.0312 16.945 0 13.176-10.715 23.965-23.953 23.965-6.6367 0-12.637-2.7227-16.945-7.0312-4.3086-4.3906-7.0312-10.297-7.0312-16.934s2.7227-12.625 7.0312-16.945zm29.09 907.69h-23.016v-23.965h23.016zm-15.828-421.82c-12.301 0-22.285-10.066-22.285-22.355 0-12.301 9.9844-22.285 22.285-22.285 12.277 0 22.285 9.9844 22.285 22.285 0.011719 12.301-10 22.355-22.285 22.355zm62.23 421.82h-22.945v-23.965h22.945zm-20.629-84.035c0-16.934 13.668-30.672 30.613-30.672 16.922 0 30.59 13.738 30.59 30.672 0 16.945-13.668 30.602-30.59 30.602-16.945 0-30.613-13.668-30.613-30.602zm50.559-195.77v-15.742h7.8477v15.742zm7.8477 8.2344v15.73h-7.8477v-15.73zm-7.8477-32.195v-15.734h7.8477v15.73zm0-23.953v-15.742l7.8477-0.003907v15.742zm0-23.977v-15.73h7.8477v15.73zm-20.93-70.129c-12.371 0-22.332-10.066-22.332-22.355 0-12.301 9.9609-22.285 22.332-22.285 12.324 0 22.285 9.9844 22.285 22.285 0 12.301-9.9609 22.355-22.285 22.355zm5.0391 142.02v-15.742h7.8477v15.742zm7.8477 8.2344v15.73h-7.8477v-15.73zm-7.8477-32.195v-15.734h7.8477v15.73zm0-23.953v-15.742h7.8477v15.742zm0-23.977v-15.73h7.8477v15.73zm-15.957 71.891v-15.742h7.8242v15.742zm7.8242 8.2344v15.73h-7.8242v-15.73zm-7.8242-32.195v-15.734h7.8242v15.73zm0-23.953v-15.742h7.8242v15.742zm0-23.977v-15.73h7.8242v15.73zm-8.1602-15.719v15.73h-7.8242v-15.73zm0 23.949v15.742l-7.8242 0.003906v-15.742zm0 23.965v15.73l-7.8242 0.003906v-15.734zm0 23.965v15.742h-7.8242v-15.742zm0 23.965v15.73h-7.8242v-15.73zm20.062 65.016c16.922 0 30.59 13.727 30.59 30.672 0 16.934-13.668 30.59-30.59 30.59-16.945 0-30.613-13.656-30.613-30.59 0-16.945 13.668-30.672 30.613-30.672zm36.395 206.55h-22.895v-23.965h22.895zm-38.086-571.26c-24.84 0-44.879-20.125-44.879-44.965 0-24.758 20.039-44.891 44.879-44.891s44.977 20.137 44.977 44.891c0 24.84-20.125 44.965-44.977 44.965zm84.586 571.26h-23.016v-23.965h23.016zm-12.695-421.82c-12.277 0-22.285-10.066-22.285-22.355 0-12.301 10.008-22.285 22.285-22.285 12.301 0 22.285 9.9844 22.285 22.285 0 12.301-9.9844 22.355-22.285 22.355zm-130.15 401.58v16.512h-15.863v-16.512zm66.375-778.36h-6v-34.273h6zm0 89.195h-6v-34.297h6zm58.641-58.754h-34.27v-5.9883h34.262l-0.003906 5.9883zm-89.207 0h-34.262v-5.9883h34.262z"/>
</svg>
